# xmcd
#
# Track frame offsets:
# 150
# 24950
# 41717
# 58367
# 90025
#
# Disc length: 1395 seconds
#
# Revision: 0
# Processed by: cddbd v1.5.1PL2 Copyright (c) Steve Scherf et al.
# Submitted via: plextools 2.32a
#
DISCID=33057105
DTITLE=フィンガー5 - 学園天国★Remix天国!!
DYEAR=2001
DGENRE=Pop
TTITLE0=フィンガー5 - 学園天国 [Indian summer Mix]
TTITLE1=フィンガー5 - 学園天国 [SONeY from 面影ラッキーホール]
TTITLE2=フィンガー5 - 学園天国 remix from dede mouse
TTITLE3=フィンガー5 - 恋のダイヤル6700 [readymade 0524 - 6700Mix]
TTITLE4=フィンガー5 - 恋のダイヤル6700 [CAPTAIN FUNK ハイスクール'99Mix]
EXTD=
EXTT0=
EXTT1=
EXTT2=
EXTT3=
EXTT4=
PLAYORDER=
